<svg width="24" height="24" viewBox="0 0 24 24" fill="none" xmlns="http://www.w3.org/2000/svg">
<path d="M12.55 14.63L19.45 10C19.6004 9.90095 19.7748 9.84435 19.9547 9.83619C20.1346 9.82802 20.3133 9.86858 20.4721 9.95359C20.6308 10.0386 20.7637 10.1649 20.8566 10.3192C20.9495 10.4734 20.9991 10.6499 21 10.83V20C21 20.2652 20.8947 20.5196 20.7071 20.7071C20.5196 20.8946 20.2652 21 20 21H4.00001C3.73479 21 3.48044 20.8946 3.2929 20.7071C3.10537 20.5196 3.00001 20.2652 3.00001 20V10.87C2.99354 10.6865 3.0377 10.5048 3.12764 10.3448C3.21759 10.1848 3.34985 10.0526 3.50993 9.96273C3.67001 9.87288 3.85174 9.82882 4.0352 9.8354C4.21866 9.84197 4.39677 9.89892 4.55001 10L11.45 14.59C11.6093 14.7035 11.7985 14.7679 11.994 14.775C12.1895 14.7821 12.3829 14.7317 12.55 14.63ZM16 3V5H18L16 3ZM11.45 14.63C11.6133 14.7375 11.8045 14.7948 12 14.7948C12.1955 14.7948 12.3867 14.7375 12.55 14.63L18 11V5L16 3H7.00001C6.73479 3 6.48044 3.10536 6.2929 3.29289C6.10537 3.48043 6.00001 3.73478 6.00001 4V11L11.45 14.63Z" stroke="black" stroke-width="2" stroke-linecap="round" stroke-linejoin="round"/>
</svg>
